<?xml version="1.0" standalone="no"?>
<!DOCTYPE svg PUBLIC "-//W3C//DTD SVG 20010904//EN"
 "http://www.w3.org/TR/2001/REC-SVG-20010904/DTD/svg10.dtd">
<svg version="1.0" xmlns="http://www.w3.org/2000/svg"
 width="1024.000000pt" height="1024.000000pt" viewBox="0 0 1024.000000 1024.000000"
 preserveAspectRatio="xMidYMid meet">
<metadata>
Created by potrace 1.14, written by Peter Selinger 2001-2017
</metadata>
<g transform="translate(0.000000,1024.000000) scale(0.100000,-0.100000)"
fill="#000000" stroke="none">
<path d="M4076 7690 c-4 -15 -10 -20 -12 -13 -4 10 -11 10 -26 2 -15 -8 -19
-8 -14 0 5 8 0 8 -17 2 -16 -6 -28 -6 -36 2 -8 8 -11 8 -11 0 0 -7 -9 -10 -20
-8 -11 2 -20 0 -20 -4 0 -4 -13 -7 -30 -6 -16 1 -30 -3 -30 -9 0 -6 -4 -6 -12
2 -7 7 -17 8 -30 1 -10 -5 -18 -7 -18 -4 0 3 -15 -1 -34 -9 -19 -8 -37 -12
-40 -9 -3 3 -13 0 -23 -8 -11 -9 -14 -10 -9 -1 10 17 -2 15 -21 -4 -12 -11
-18 -12 -23 -4 -6 9 -13 9 -29 1 -12 -7 -26 -9 -31 -6 -6 3 -10 1 -10 -6 0 -6
-8 -9 -20 -6 -11 3 -20 1 -20 -5 0 -5 -5 -6 -12 -2 -7 5 -9 2 -5 -8 6 -17 -23
-20 -36 -3 -4 6 -10 1 -13 -12 -4 -14 -11 -20 -18 -16 -19 12 -36 12 -33 0 1
-7 -4 -11 -10 -9 -7 1 -13 -3 -13 -9 0 -5 -5 -7 -10 -4 -6 3 -18 -1 -27 -11
-11 -11 -18 -13 -21 -5 -3 8 -8 7 -17 -2 -32 -28 -45 -37 -45 -32 0 3 -16 -2
-36 -10 -20 -8 -41 -12 -47 -8 -5 3 -7 2 -4 -4 7 -12 -40 -36 -54 -28 -5 3 -6
-1 -3 -9 4 -11 0 -13 -17 -9 -15 4 -20 3 -15 -5 4 -7 1 -12 -8 -12 -16 0 -89
-40 -94 -52 -2 -4 -9 -5 -17 -2 -7 3 -18 -4 -25 -15 -6 -11 -14 -20 -18 -19
-4 1 -21 -5 -38 -15 -17 -9 -35 -13 -39 -9 -5 4 -5 1 -1 -5 4 -8 1 -13 -8 -13
-8 0 -20 -8 -25 -17 -6 -10 -11 -15 -11 -10 0 4 -19 -5 -42 -20 -24 -14 -45
-27 -48 -27 -3 -1 -4 -5 -2 -10 2 -5 -6 -6 -17 -3 -15 3 -18 1 -14 -11 4 -10
2 -13 -5 -8 -7 4 -12 2 -12 -4 0 -6 -4 -9 -9 -5 -6 3 -14 -3 -20 -12 -5 -10
-13 -15 -16 -11 -4 4 -15 -1 -24 -11 -24 -28 -77 -60 -67 -41 4 8 0 6 -9 -5
-9 -11 -19 -20 -23 -20 -13 0 -52 -32 -46 -37 3 -3 -1 -5 -8 -5 -14 2 -62 -30
-102 -68 -11 -11 -24 -19 -28 -17 -5 1 -8 -3 -8 -9 0 -5 -4 -7 -10 -4 -5 3
-10 1 -10 -5 0 -6 -5 -8 -12 -4 -6 4 -8 3 -5 -3 8 -13 -17 -36 -27 -25 -4 4
-14 -2 -22 -13 -8 -11 -16 -18 -17 -16 -4 8 -47 -11 -47 -20 0 -6 -4 -7 -10
-4 -6 3 -7 -1 -4 -9 4 -9 -1 -18 -10 -22 -9 -3 -13 -10 -10 -15 3 -5 1 -9 -4
-9 -6 0 -13 -7 -16 -16 -4 -10 -2 -13 7 -9 6 4 -4 -8 -23 -25 -19 -17 -36 -26
-38 -21 -2 5 -15 6 -33 1 -16 -5 -29 -7 -29 -4 0 2 -8 -4 -18 -13 -10 -10 -18
-24 -17 -32 2 -20 -33 -53 -48 -45 -7 4 -9 4 -6 0 4 -4 -6 -21 -21 -38 -16
-17 -29 -38 -29 -47 -1 -35 -5 -51 -10 -51 -4 0 -12 -9 -19 -21 -8 -12 -9 -18
-3 -15 7 5 8 1 5 -9 -4 -9 -13 -14 -21 -11 -8 3 -11 1 -8 -4 4 -6 -1 -17 -9
-26 -9 -9 -13 -21 -9 -27 4 -6 0 -8 -9 -4 -11 4 -18 -1 -21 -15 -3 -11 -10
-17 -15 -14 -5 3 -9 -2 -8 -12 0 -9 -5 -16 -12 -14 -8 1 -11 -2 -7 -8 3 -5 -1
-13 -9 -16 -9 -3 -13 -10 -10 -15 3 -5 0 -9 -5 -9 -6 0 -11 -7 -11 -15 0 -8
-7 -15 -15 -15 -8 0 -14 -3 -14 -7 3 -20 -2 -34 -11 -28 -6 3 -10 -1 -10 -9 0
-9 -5 -16 -11 -16 -6 0 -8 -7 -5 -17 4 -10 4 -14 0 -11 -8 9 -54 -41 -54 -58
0 -8 -8 -14 -17 -14 -15 0 -16 -2 -3 -10 13 -8 12 -10 -3 -10 -11 0 -15 -5
-11 -11 3 -6 -9 -25 -27 -42 -23 -21 -28 -29 -14 -24 17 6 16 3 -5 -16 -14
-13 -26 -30 -28 -38 -2 -7 -9 -17 -15 -21 -6 -3 -12 -14 -13 -24 -2 -9 -8 -20
-15 -24 -6 -4 -8 -13 -5 -19 4 -6 0 -11 -10 -11 -10 0 -14 -3 -11 -7 4 -3 -1
-15 -10 -26 -10 -11 -12 -17 -5 -13 11 7 11 4 1 -12 -7 -12 -18 -18 -24 -15
-5 4 -7 3 -3 -2 4 -4 3 -14 -3 -22 -6 -7 -9 -13 -6 -13 3 0 -4 -11 -16 -24
-15 -17 -24 -21 -29 -13 -6 9 -8 9 -8 -1 0 -15 -91 -107 -103 -104 -5 1 -6 -2
-3 -7 4 -5 -10 -26 -29 -47 -24 -25 -32 -40 -24 -45 8 -5 8 -8 -1 -11 -15 -5
-18 -20 -21 -105 -1 -35 -7 -63 -12 -63 -6 0 -7 -3 -4 -7 4 -3 2 -12 -4 -19
-6 -7 -6 -14 0 -18 5 -3 7 -14 4 -25 -2 -10 3 -25 12 -35 9 -9 12 -16 5 -16
-7 0 -5 -7 4 -16 9 -8 14 -20 11 -25 -4 -5 -2 -9 4 -9 6 0 7 -7 4 -17 -4 -11
-3 -14 5 -9 7 4 12 2 12 -3 0 -6 -8 -11 -17 -11 -14 0 -15 -2 -5 -9 20 -12 19
-16 -3 -42 -13 -14 -14 -20 -5 -15 8 4 4 -2 -10 -13 -14 -12 -31 -26 -37 -31
-9 -8 -13 -7 -13 1 0 8 -4 9 -13 0 -8 -6 -17 -7 -21 -3 -4 4 -6 0 -4 -8 2 -8
-3 -14 -10 -12 -8 1 -11 -2 -8 -7 4 -5 1 -13 -6 -18 -15 -10 -17 -35 -3 -45 6
-5 5 -8 -2 -8 -7 0 -10 -7 -6 -15 3 -9 2 -15 -3 -14 -21 3 -26 -2 -15 -15 9
-11 10 -20 1 -35 -8 -16 -8 -21 2 -21 9 0 9 -3 0 -12 -7 -7 -8 -17 -1 -30 6
-10 6 -18 0 -18 -5 0 -12 -7 -15 -16 -4 -10 -2 -13 7 -8 7 5 5 0 -3 -11 -8
-10 -14 -20 -12 -22 1 -1 2 -4 1 -5 -5 -17 -4 -48 2 -48 5 0 4 -12 -2 -26 -5
-15 -7 -29 -5 -32 3 -2 -2 -11 -10 -20 -13 -12 -13 -16 -2 -23 10 -7 9 -9 -3
-9 -25 0 -26 -117 -2 -137 11 -9 12 -12 3 -7 -12 5 -12 4 -3 -6 7 -8 9 -21 3
-35 -4 -12 -4 -28 0 -35 5 -8 5 -21 0 -30 -5 -9 -5 -22 -1 -29 5 -7 5 -28 1
-47 -5 -19 -4 -32 1 -28 9 5 13 -8 10 -38 -1 -10 2 -26 8 -36 5 -10 6 -24 1
-32 -4 -7 -5 -23 0 -35 5 -12 4 -29 -2 -39 -8 -14 -7 -17 1 -12 10 6 16 -12
12 -36 0 -5 5 -8 12 -8 9 0 8 -3 -2 -9 -9 -6 -10 -11 -3 -15 6 -4 9 -13 5 -21
-3 -8 0 -15 7 -15 6 0 9 -4 6 -8 -3 -5 1 -21 9 -36 8 -14 10 -24 5 -21 -6 4
-10 1 -10 -4 0 -6 4 -11 9 -11 5 0 12 -7 15 -16 3 -8 2 -12 -4 -9 -6 3 -10 1
-10 -4 0 -6 4 -11 10 -11 5 0 9 -3 8 -7 -1 -5 4 -19 11 -32 8 -14 9 -21 2 -17
-8 5 -8 0 1 -18 6 -14 15 -26 20 -26 4 0 7 -5 5 -11 -1 -6 6 -13 16 -14 13 -3
17 4 17 27 0 26 22 63 31 53 2 -2 5 29 6 68 2 44 7 74 15 78 7 5 14 13 14 19
1 5 3 12 4 15 5 10 8 26 9 56 1 21 7 32 20 36 13 3 18 12 16 30 -1 15 6 34 21
48 13 13 24 31 24 39 0 8 8 21 18 28 9 7 18 19 20 26 6 29 66 104 76 95 3 -4
6 4 6 17 0 13 3 20 6 17 4 -4 26 14 50 38 23 25 47 45 52 45 6 0 12 3 14 8 2
4 18 18 37 31 19 13 31 17 27 10 -4 -8 -1 -6 7 4 8 9 18 17 22 17 5 0 17 8 28
18 15 12 18 13 12 2 -7 -12 -6 -13 7 -3 8 7 18 10 21 6 4 -3 7 0 7 7 0 7 3 11
6 7 5 -5 58 10 104 30 8 3 22 7 30 9 8 2 16 8 18 13 2 6 11 8 20 3 23 -10 69
-7 85 6 7 6 18 7 27 2 7 -4 23 -4 36 0 16 6 26 5 34 -5 7 -8 17 -12 24 -8 17
11 36 12 36 2 0 -6 8 -5 20 1 11 6 20 7 20 3 0 -5 12 -10 27 -11 15 -1 29 -6
32 -11 3 -4 14 -7 24 -5 9 1 17 -1 17 -6 0 -5 11 -7 24 -6 15 2 27 -3 31 -12
3 -8 8 -12 12 -8 3 3 15 -2 26 -11 13 -11 17 -12 12 -4 -5 9 2 7 17 -5 14 -10
23 -23 20 -29 -3 -5 3 -3 13 5 11 9 16 10 11 3 -4 -8 -2 -13 8 -13 8 0 19 -8
25 -17 5 -10 12 -17 15 -15 15 6 26 1 26 -12 0 -8 5 -18 12 -22 7 -5 8 -3 3 5
-5 9 -1 9 14 -1 12 -7 21 -19 21 -26 0 -7 4 -11 9 -8 11 7 61 -39 61 -56 0 -9
3 -10 8 -2 5 7 14 5 27 -9 11 -11 14 -17 8 -13 -21 12 -15 3 19 -29 18 -17 28
-24 23 -16 -5 10 -4 12 4 7 6 -4 9 -11 6 -16 -3 -5 11 -25 30 -44 20 -20 32
-36 28 -36 -4 0 0 -5 10 -11 9 -5 17 -17 17 -24 0 -8 6 -15 14 -15 8 0 16 -7
20 -15 3 -8 0 -15 -7 -15 -6 0 -1 -7 11 -16 12 -8 22 -24 22 -35 0 -10 5 -19
11 -19 5 0 7 -5 4 -10 -4 -6 -1 -9 5 -8 7 2 14 -5 15 -15 2 -9 13 -33 24 -53
12 -19 16 -32 10 -29 -6 4 -4 -6 5 -23 8 -16 12 -32 9 -36 -4 -3 -1 -6 6 -6 9
0 9 -5 0 -21 -8 -15 -8 -19 0 -15 7 5 11 -1 11 -14 0 -14 4 -19 13 -14 9 6 9
4 -1 -8 -11 -14 -10 -18 5 -27 10 -6 14 -11 10 -11 -4 0 -3 -9 3 -20 8 -14 8
-20 0 -20 -6 0 -2 -9 9 -21 11 -12 17 -28 14 -37 -4 -10 -2 -13 5 -8 8 5 10 2
6 -8 -3 -9 -2 -16 3 -16 5 0 9 -12 8 -27 0 -16 6 -33 15 -40 11 -9 11 -12 2
-13 -9 0 -10 -5 -3 -18 6 -11 6 -24 -1 -36 -9 -15 -8 -18 4 -14 8 4 15 0 16
-8 1 -8 3 -21 4 -29 1 -8 5 -15 10 -15 5 0 7 -4 4 -8 -2 -4 6 -8 18 -8 20 0
23 5 25 44 1 28 8 51 19 61 9 9 18 31 19 49 1 17 9 39 18 48 9 9 19 29 22 45
3 16 9 29 14 29 5 0 9 7 9 16 0 8 5 12 10 9 6 -4 10 -3 9 2 -3 19 1 46 7 40 8
-8 34 18 34 33 0 15 26 41 34 33 3 -4 6 1 6 10 0 9 4 17 10 17 5 0 26 16 46
35 20 19 40 33 45 29 5 -3 9 -1 9 5 0 5 18 17 40 27 22 10 40 24 40 31 0 10 5
11 19 3 14 -7 22 -7 26 0 4 6 11 8 16 5 5 -4 9 -1 9 6 0 7 11 10 30 7 17 -3
30 -2 30 2 0 3 16 5 35 4 26 -2 34 0 28 9 -4 7 5 4 19 -5 17 -11 29 -14 33 -8
9 15 125 5 136 -11 5 -8 9 -10 9 -5 0 5 7 3 15 -4 12 -10 15 -10 15 1 0 9 3
10 8 4 10 -16 54 -17 45 -2 -5 8 -2 8 9 -1 8 -7 22 -10 30 -7 9 4 22 -1 30 -9
11 -11 18 -12 27 -3 8 8 11 8 11 -2 0 -7 5 -9 10 -6 6 3 13 -1 16 -10 5 -12 9
-13 20 -4 12 10 13 9 8 -5 -3 -9 -1 -16 5 -16 6 0 11 -8 11 -17 0 -14 2 -15 9
-5 6 10 10 7 15 -13 4 -15 10 -25 13 -21 3 3 14 -4 24 -15 10 -12 23 -18 28
-14 6 3 11 1 11 -5 0 -6 4 -9 9 -5 5 3 12 1 16 -5 4 -6 11 -8 16 -5 5 4 9 -2
9 -12 0 -14 2 -15 9 -5 7 11 9 10 15 -3 3 -9 10 -13 16 -10 5 3 18 1 27 -4 10
-6 14 -11 9 -11 -13 0 43 -50 57 -50 7 0 6 -4 -3 -10 -11 -7 -11 -10 -2 -10 7
0 27 -14 45 -31 18 -17 26 -28 20 -25 -7 4 -13 3 -13 -3 0 -5 9 -13 20 -16 11
-3 20 -11 20 -16 0 -14 26 -39 40 -39 6 0 9 -4 6 -8 -7 -12 29 -63 39 -55 4 5
6 1 2 -9 -4 -10 1 -18 14 -21 10 -3 19 -13 19 -22 0 -9 11 -27 25 -41 14 -14
25 -34 25 -44 0 -14 5 -18 18 -13 15 6 15 5 3 -10 -12 -15 -11 -17 3 -17 14 0
18 -6 15 -26 0 -3 9 -14 21 -24 12 -10 21 -21 21 -24 -3 -20 1 -26 17 -26 14
0 15 -2 2 -10 -14 -9 -7 -15 14 -11 5 1 6 -5 3 -12 -3 -8 2 -25 11 -38 9 -13
17 -26 17 -29 0 -3 4 -4 8 -2 5 1 6 -2 3 -7 -4 -5 -2 -12 3 -16 6 -3 8 -12 4
-20 -3 -8 0 -15 7 -15 6 0 9 -4 5 -9 -3 -5 -1 -12 5 -16 6 -4 7 -11 4 -17 -4
-6 -2 -8 3 -5 16 10 24 -18 10 -33 -7 -7 -7 -10 -2 -7 6 3 16 -3 23 -14 8 -12
9 -19 1 -19 -5 0 -7 -5 -4 -10 4 -6 12 -7 18 -4 7 4 9 4 5 -1 -4 -4 -2 -15 5
-23 9 -13 9 -14 0 -8 -9 5 -11 2 -7 -8 3 -9 10 -13 15 -10 8 4 13 -7 11 -26 0
-3 8 -7 19 -7 27 -2 51 -22 42 -36 -3 -5 -1 -7 4 -4 13 8 35 -16 31 -34 -2 -8
3 -13 10 -11 8 1 11 -2 7 -8 -3 -5 -1 -10 5 -10 6 0 8 -5 5 -10 -4 -6 -11 -7
-17 -4 -6 4 -5 -2 1 -15 9 -17 9 -22 -2 -27 -7 -2 -13 -15 -12 -27 1 -12 -2
-24 -6 -27 -8 -5 -9 -24 -8 -87 0 -13 4 -23 8 -23 5 0 12 -20 16 -45 4 -31 10
-43 18 -38 8 4 7 1 -1 -9 -9 -12 -10 -18 -2 -23 8 -5 8 -10 0 -20 -8 -10 -8
-15 1 -21 8 -5 9 -3 4 6 -6 9 -4 11 4 6 7 -5 12 -20 11 -34 -1 -15 -1 -29 0
-32 1 -3 3 -20 4 -38 1 -19 7 -37 12 -40 11 -8 11 -42 1 -60 -5 -6 -4 -12 2
-12 6 0 10 -3 10 -7 -4 -27 2 -34 16 -19 9 8 15 33 15 58 0 31 5 46 18 54 11
7 19 26 20 50 2 21 10 42 18 47 8 5 12 12 9 18 -4 5 -2 9 2 9 5 0 9 23 11 51
1 34 8 57 20 68 9 9 19 32 21 51 1 19 10 40 19 48 13 10 13 12 2 7 -13 -5 -13
-4 0 7 9 7 17 31 18 52 2 22 10 44 18 50 8 6 17 29 21 50 3 22 14 47 25 58 10
10 18 27 18 38 0 12 9 30 20 42 11 12 20 36 20 52 0 20 7 36 20 44 12 7 20 23
20 38 0 24 22 58 32 49 2 -2 5 10 6 27 2 18 11 38 22 45 11 8 20 23 20 34 0
10 5 19 11 19 5 0 8 4 5 9 -3 5 1 11 9 15 8 3 15 15 15 26 0 23 24 53 34 43 3
-4 6 3 6 15 0 12 8 30 18 41 9 10 26 31 37 45 11 15 26 33 33 41 6 7 12 19 12
25 0 6 5 8 12 4 6 -4 8 -3 5 2 -3 6 -3 14 1 19 11 16 76 59 67 45 -5 -9 -4
-11 3 -6 7 4 12 11 12 17 0 5 9 18 20 29 11 11 20 31 20 45 0 14 4 25 9 25 6
0 18 13 27 29 10 17 21 28 25 26 7 -5 23 24 21 37 -1 4 6 4 15 1 11 -4 14 -3
9 5 -5 8 5 18 26 27 18 8 29 15 23 15 -5 1 -1 5 10 9 12 5 23 4 27 -3 6 -8 8
-7 8 2 0 6 6 12 14 12 8 0 28 14 46 30 18 17 34 30 37 30 3 0 14 10 25 23 11
12 17 15 13 7 -4 -8 3 -4 15 10 12 14 18 18 14 10 -4 -8 3 -5 15 8 12 12 29
22 37 22 8 0 13 4 10 8 -3 4 8 7 24 6 18 -1 31 4 34 13 5 12 9 13 20 4 10 -9
16 -9 21 -1 5 8 11 7 23 -2 12 -10 14 -10 8 0 -4 7 -1 12 8 12 9 0 16 4 16 9
0 5 15 6 34 1 19 -4 41 -3 51 3 12 7 20 5 26 -4 5 -8 9 -9 9 -4 0 6 16 11 35
11 19 0 35 -5 35 -10 0 -5 7 -1 15 10 8 10 14 15 13 9 -3 -8 6 -17 15 -14 17
6 57 2 57 -5 0 -5 3 -6 7 -3 3 4 13 1 21 -6 13 -10 14 -9 7 3 -5 9 1 7 15 -5
13 -11 20 -15 17 -8 -9 14 31 5 40 -10 4 -6 1 -7 -7 -2 -9 5 -11 4 -6 -3 5 -9
13 -9 27 -2 10 6 20 8 20 5 1 -3 3 -9 4 -15 1 -5 3 -13 4 -17 0 -4 6 -2 13 5
8 8 18 3 41 -21 16 -18 24 -23 16 -12 -13 19 -13 19 4 6 10 -8 16 -20 13 -28
-3 -8 -1 -11 4 -8 12 7 40 -18 40 -35 0 -6 4 -9 9 -6 5 3 11 -4 14 -15 3 -12
10 -18 16 -15 6 4 13 -5 17 -19 3 -14 10 -25 16 -25 5 0 6 -4 3 -10 -3 -5 -1
-10 5 -10 6 0 8 -4 5 -10 -3 -5 -1 -10 4 -10 6 0 11 -7 11 -15 0 -8 5 -15 11
-15 5 0 7 -4 4 -10 -3 -5 -1 -10 5 -10 7 0 9 -7 6 -15 -3 -9 1 -18 10 -22 9
-3 14 -13 11 -24 -3 -11 -1 -19 4 -19 5 0 9 -7 9 -15 0 -8 5 -15 12 -15 9 0 9
-3 0 -12 -9 -9 -8 -16 6 -32 9 -11 11 -16 5 -12 -7 4 -13 2 -13 -3 0 -6 5 -11
11 -11 5 0 7 -5 4 -10 -3 -5 0 -10 7 -10 9 0 9 -3 -2 -10 -11 -7 -11 -10 -2
-10 7 0 11 -4 7 -10 -3 -5 7 -16 22 -24 l28 -14 3 51 c2 31 9 55 19 62 8 6 18
33 21 60 5 44 23 81 34 70 2 -2 5 10 6 27 1 16 13 39 25 50 12 11 15 16 7 12
-12 -6 -13 -4 -3 7 7 7 13 21 13 31 0 10 5 18 11 18 6 0 9 7 5 15 -3 8 0 14 5
12 6 -1 13 9 15 23 2 14 14 33 25 42 12 11 19 24 15 33 -3 9 3 23 14 32 11 10
23 32 26 51 4 19 14 36 25 40 19 7 19 8 19 46 0 15 7 27 18 30 10 3 18 16 19
28 1 13 10 30 20 38 10 9 19 21 21 29 1 7 14 24 27 37 14 14 25 29 25 35 0 6
4 7 10 4 5 -3 12 6 16 20 3 14 12 25 19 25 8 0 17 9 20 20 3 11 11 20 16 20 6
0 21 12 34 26 14 15 25 23 25 18 0 -5 7 2 16 14 8 12 20 20 25 17 5 -4 9 -1 9
4 0 6 7 11 16 11 8 0 13 4 10 9 -3 4 12 16 34 26 22 10 37 22 33 28 -3 6 -1 7
6 3 6 -4 18 -2 26 4 8 7 15 9 15 6 0 -4 14 2 30 14 17 12 30 18 30 14 0 -3 8
0 17 7 13 11 15 11 9 1 -7 -11 -4 -11 15 0 13 7 26 16 29 20 3 4 14 7 25 7 46
1 61 5 73 20 12 14 13 14 8 -1 -3 -10 -1 -18 4 -18 6 0 10 4 10 10 0 5 6 7 14
4 8 -3 17 -1 21 5 4 8 12 8 26 1 10 -6 19 -8 19 -6 0 3 11 1 24 -4 17 -6 26
-5 30 3 3 8 5 8 5 -2 1 -11 4 -11 18 0 9 8 14 9 10 3 -4 -7 3 -14 18 -17 14
-2 28 -1 30 4 7 10 65 -19 65 -32 0 -6 4 -8 9 -4 5 3 13 1 16 -5 5 -8 11 -8
20 0 10 8 15 8 21 -1 5 -8 3 -9 -6 -4 -9 6 -11 4 -6 -4 5 -7 14 -10 21 -7 7 2
18 -1 25 -7 10 -9 11 -9 4 3 -6 12 -2 11 19 -3 15 -9 27 -15 27 -11 0 3 9 -4
20 -17 12 -15 19 -19 20 -10 0 10 6 7 19 -7 10 -12 26 -22 35 -22 9 0 16 -5
16 -11 0 -17 29 -41 41 -33 7 4 9 3 5 -4 -3 -5 -2 -12 3 -14 5 -1 11 -10 13
-18 4 -21 24 -40 42 -40 8 0 18 -5 22 -12 5 -7 3 -8 -6 -3 -9 5 -11 4 -6 -3 4
-7 14 -12 22 -12 8 0 14 -5 14 -11 0 -5 5 -7 12 -3 8 5 9 2 5 -9 -3 -9 -2 -16
2 -14 8 2 78 -65 74 -70 -6 -9 11 -41 20 -36 7 4 8 0 3 -13 -4 -10 -4 -15 0
-11 13 12 34 -26 22 -41 -8 -9 -7 -11 5 -7 10 4 18 -1 23 -17 4 -13 7 -26 6
-30 -1 -5 1 -8 6 -8 8 0 32 -51 36 -75 1 -8 5 -18 9 -21 11 -11 8 -26 -3 -19
-6 3 -7 -1 -4 -9 3 -9 11 -16 16 -16 6 0 8 -6 5 -14 -3 -7 -1 -18 5 -24 8 -8
8 -16 -2 -27 -7 -8 -8 -15 -2 -15 5 0 9 -13 8 -30 -2 -23 1 -27 11 -18 11 9
12 6 4 -16 -7 -18 -7 -26 0 -26 6 0 8 -4 4 -9 -8 -14 12 -23 33 -17 13 5 19
18 21 48 1 23 5 45 9 48 19 14 29 53 31 129 1 67 6 88 20 100 15 14 18 35 20
151 2 103 6 137 16 143 8 4 12 14 9 22 -4 8 -1 15 6 15 9 0 9 4 2 13 -7 8 -7
18 -2 27 5 8 6 19 2 24 -9 16 -10 46 0 40 4 -3 8 -1 8 5 0 5 -5 13 -10 16 -7
4 -7 13 -1 24 7 13 5 25 -6 41 -9 13 -11 20 -5 16 17 -10 15 10 -3 27 -11 11
-15 47 -17 143 l-3 127 -32 18 c-23 13 -33 15 -33 6 0 -6 -5 -4 -11 6 -5 9
-16 17 -23 17 -8 0 -17 11 -20 25 -4 14 -12 25 -19 25 -8 0 -7 4 3 10 13 8 12
10 -2 10 -13 0 -18 8 -18 26 0 26 23 58 34 47 3 -4 6 4 6 16 0 23 23 54 33 44
3 -3 6 14 5 37 0 27 -7 49 -19 61 -12 12 -19 35 -20 71 -2 36 -8 58 -21 69
-12 11 -18 32 -19 63 -1 25 -6 46 -11 46 -5 0 -6 5 -3 10 3 6 -1 10 -9 10 -11
0 -16 10 -17 33 -1 50 -7 71 -23 83 -9 6 -17 23 -18 38 -1 14 -6 26 -11 26 -4
0 -5 5 -2 10 3 6 -1 10 -9 10 -11 0 -16 10 -16 33 0 18 -6 39 -12 46 -11 11
-10 12 0 6 11 -6 12 -3 3 13 -6 11 -15 22 -20 24 -5 1 -11 19 -13 38 -2 23
-15 46 -40 73 -21 21 -38 47 -38 57 0 11 -5 20 -11 20 -6 0 -9 7 -5 15 3 9 0
15 -9 15 -13 0 -17 6 -14 26 0 3 -9 14 -20 23 -12 10 -21 26 -21 34 0 9 -11
24 -25 33 -14 9 -22 21 -18 27 3 5 2 7 -4 4 -5 -4 -19 3 -31 13 -12 11 -26 20
-32 20 -9 0 -15 28 -11 58 1 8 -6 23 -15 33 -17 19 -17 20 2 14 14 -4 13 -3
-3 6 -13 7 -25 20 -28 30 -4 11 -13 19 -21 19 -12 0 -19 26 -15 53 0 4 -4 7
-9 7 -6 0 -10 6 -8 14 2 8 -13 29 -32 47 -19 19 -34 38 -32 43 1 4 -6 16 -18
26 -11 9 -20 23 -20 30 0 6 -5 10 -12 8 -6 -2 -20 4 -30 14 -10 10 -23 16 -28
13 -6 -4 -10 -2 -10 4 0 5 -9 13 -20 16 -11 3 -20 11 -20 17 0 13 -56 68 -69
68 -5 0 -12 9 -16 19 -3 10 -15 21 -26 24 -12 3 -18 10 -15 15 3 5 -6 14 -20
21 -14 6 -23 15 -19 20 3 5 -4 12 -15 16 -11 3 -20 10 -20 15 0 5 -16 18 -36
31 -20 12 -46 31 -58 43 -43 41 -79 65 -89 59 -6 -3 -8 -2 -5 3 3 5 0 15 -8
22 -8 7 -14 11 -14 8 0 -3 -12 6 -26 19 -15 14 -33 25 -40 25 -8 0 -13 3 -11
8 1 4 -1 8 -6 10 -4 1 -16 10 -26 20 -38 33 -51 43 -51 35 0 -4 -4 -3 -8 2
-15 21 -56 50 -48 35 7 -13 6 -13 -6 0 -16 18 -44 36 -75 50 -13 5 -23 14 -23
20 0 6 -17 18 -37 28 -21 9 -40 20 -43 23 -3 4 -15 9 -28 13 -12 4 -20 11 -17
16 4 7 -13 15 -38 18 -5 0 -17 10 -27 22 -10 12 -21 21 -24 21 -25 -3 -36 1
-30 10 5 8 1 8 -14 0 -15 -8 -22 -8 -25 2 -3 6 -6 2 -6 -10 -1 -17 -6 -20 -23
-15 -16 4 -19 2 -13 -8 6 -10 4 -12 -7 -7 -9 3 -21 0 -27 -6 -6 -6 -11 -7 -11
-1 0 5 -10 10 -22 11 -11 1 -24 7 -28 13 -4 7 -11 12 -16 12 -5 0 -8 4 -6 10
1 5 -1 7 -6 4 -10 -6 -43 30 -35 38 4 3 -1 6 -10 6 -11 0 -17 8 -17 23 0 57
-11 69 -99 110 -47 22 -92 39 -100 38 -7 -1 -10 2 -6 8 3 6 -1 11 -9 11 -8 0
-22 7 -30 16 -9 8 -16 13 -16 9 0 -3 -10 0 -22 7 -13 7 -29 11 -37 9 -8 -1
-10 2 -6 10 5 7 3 10 -6 7 -8 -3 -20 2 -27 11 -11 13 -12 13 -7 1 4 -8 -1 -6
-9 4 -9 11 -16 14 -16 8 0 -10 -5 -10 -22 0 -13 7 -27 13 -33 13 -5 1 -20 7
-33 13 -12 7 -28 12 -35 10 -18 -3 -57 12 -57 23 0 6 -7 6 -19 -1 -13 -7 -22
-7 -26 0 -4 7 -13 6 -27 -1 -15 -8 -19 -8 -14 0 4 6 4 12 -1 12 -4 1 -17 3
-28 4 -11 1 -33 4 -50 6 -16 2 -36 10 -43 16 -10 9 -19 10 -33 3 -13 -8 -19
-7 -19 0 0 6 -4 9 -10 5 -13 -8 -61 5 -54 16 3 5 -6 5 -20 -1 -17 -6 -27 -6
-32 1 -4 6 -11 6 -20 -2 -11 -9 -14 -9 -14 1 0 8 -6 9 -17 5 -10 -4 -24 -8
-31 -8 -9 0 -11 -8 -8 -21 3 -12 6 -28 6 -36 0 -13 1 -13 10 0 8 13 10 12 10
-2 0 -16 11 -23 33 -19 4 0 7 -6 7 -14 0 -8 9 -15 20 -15 11 0 20 -5 20 -11 0
-5 5 -7 12 -3 7 4 8 3 4 -4 -4 -7 3 -17 18 -23 14 -7 23 -17 19 -22 -4 -6 0
-8 10 -4 9 3 16 3 16 -1 -1 -4 -1 -14 0 -22 1 -13 2 -13 11 0 9 14 12 9 9 -17
0 -5 10 -11 23 -14 13 -3 22 -11 20 -17 -1 -7 2 -12 7 -12 16 0 131 -117 123
-125 -4 -4 -2 -5 5 -3 7 2 39 -26 73 -61 34 -35 53 -60 43 -57 -10 4 -3 -6 14
-22 18 -16 30 -32 26 -35 -3 -4 -1 -7 6 -7 7 0 9 -5 6 -11 -4 -6 2 -13 13 -16
14 -3 18 -11 14 -25 -3 -13 -1 -19 5 -15 6 4 18 -11 28 -33 10 -22 22 -37 28
-33 6 3 7 1 3 -5 -3 -6 -1 -14 5 -17 5 -4 8 -13 5 -21 -3 -8 -1 -14 4 -14 6 0
10 -7 10 -15 0 -8 5 -15 11 -15 5 0 7 -5 4 -10 -3 -6 1 -17 9 -25 8 -9 13 -22
9 -30 -3 -9 0 -22 7 -30 7 -9 10 -18 7 -22 -4 -3 -2 -13 5 -20 9 -11 9 -16 -1
-22 -10 -6 -9 -10 4 -15 9 -3 14 -10 11 -15 -4 -5 0 -12 6 -14 9 -4 9 -6 1 -6
-8 -1 -9 -10 -3 -31 6 -20 5 -30 -2 -30 -6 0 -7 -5 -2 -12 11 -16 11 -39 1
-55 -5 -7 -4 -13 0 -13 5 0 9 -9 9 -20 0 -11 -4 -20 -9 -20 -5 0 -5 -6 1 -13
6 -7 7 -18 3 -25 -4 -8 -6 -24 -3 -38 2 -14 0 -24 -7 -24 -7 0 -10 -4 -6 -9 3
-5 1 -13 -5 -16 -8 -5 -7 -11 1 -21 9 -11 8 -15 -5 -20 -9 -3 -13 -10 -10 -15
3 -5 0 -9 -6 -9 -6 0 -9 -4 -5 -9 3 -6 -3 -14 -12 -20 -10 -6 -13 -11 -7 -11
6 0 11 -7 11 -15 0 -8 -3 -13 -5 -10 -3 3 -17 -16 -32 -42 -14 -27 -31 -47
-37 -46 -6 1 -14 -4 -17 -13 -4 -10 -2 -13 7 -8 6 4 -4 -8 -23 -27 -19 -20
-37 -34 -39 -32 -2 1 -12 -7 -22 -19 -11 -11 -19 -17 -19 -12 0 5 -7 -2 -16
-14 -8 -12 -21 -22 -29 -22 -7 0 -21 -8 -31 -17 -10 -10 -20 -18 -23 -18 -3 0
-4 -4 -3 -10 2 -5 0 -7 -3 -3 -4 4 -20 1 -35 -7 -15 -8 -31 -11 -35 -7 -5 4
-5 1 -1 -5 4 -8 1 -13 -8 -13 -9 0 -16 -6 -16 -12 0 -9 -4 -8 -10 2 -7 11 -10
11 -10 2 0 -7 -4 -10 -10 -7 -5 3 -10 1 -10 -5 0 -7 -7 -10 -15 -6 -8 3 -15 2
-15 -2 0 -4 -9 -13 -21 -20 -17 -11 -20 -11 -14 0 3 7 1 6 -7 -3 -7 -9 -24
-15 -37 -14 -13 1 -32 -6 -43 -17 -10 -10 -18 -14 -18 -9 0 5 -8 8 -17 6 -10
-1 -17 -7 -16 -13 1 -6 -5 -9 -15 -7 -9 1 -28 -4 -40 -12 -13 -8 -26 -12 -30
-9 -3 3 0 6 6 6 7 0 12 5 12 12 0 6 -11 1 -25 -12 -17 -16 -25 -19 -25 -9 -1
11 -4 10 -14 -3 -7 -10 -16 -15 -19 -12 -3 3 -14 1 -25 -5 -13 -7 -23 -7 -32
2 -10 10 -11 9 -5 -2 6 -11 4 -13 -8 -8 -10 3 -17 3 -17 -2 0 -4 -10 -7 -22
-6 -13 1 -31 -2 -40 -7 -12 -6 -18 -5 -18 2 0 7 -6 8 -18 1 -18 -10 -58 10
-45 22 3 4 1 7 -6 7 -7 0 -9 5 -6 10 3 6 -1 10 -9 10 -13 0 -16 17 -17 103 -1
211 -8 284 -28 296 -5 4 -10 67 -12 141 -2 105 -6 139 -18 154 -9 11 -10 16
-3 12 6 -4 12 -3 12 3 0 5 -7 14 -15 18 -11 7 -14 45 -16 206 -2 109 -7 200
-11 203 -5 3 -6 10 -3 15 4 5 -1 9 -9 9 -9 0 -16 9 -16 20 0 24 -18 22 -44 -5
-10 -11 -22 -19 -26 -18 -5 2 -7 -6 -5 -17 2 -12 0 -18 -6 -15 -8 6 -13 -8
-10 -27 0 -5 -6 -8 -15 -8 -8 0 -13 -4 -9 -9 3 -5 1 -12 -5 -16 -6 -4 -7 -11
-4 -17 4 -7 2 -8 -4 -4 -7 4 -12 1 -12 -9 0 -9 -4 -13 -10 -10 -5 3 -10 1 -10
-5 0 -7 -10 -26 -22 -43 -12 -17 -16 -27 -8 -22 14 9 -38 -65 -55 -77 -6 -5
-4 -8 5 -8 13 -1 12 -3 -1 -13 -9 -7 -19 -21 -21 -32 -2 -11 -9 -19 -16 -18
-7 2 -9 -4 -5 -14 4 -11 3 -14 -5 -9 -11 6 -15 -11 -11 -41 0 -3 -5 -10 -13
-14 -14 -8 -17 -46 -5 -66 4 -7 2 -15 -4 -19 -8 -5 -9 -3 -4 6 5 8 4 11 -2 7
-15 -9 -22 -77 -8 -77 5 0 1 -7 -9 -15 -11 -8 -16 -15 -10 -15 5 0 2 -5 -6
-10 -11 -7 -11 -10 -2 -10 9 0 10 -5 3 -19 -6 -10 -7 -22 -3 -26 4 -5 1 -4 -7
0 -11 6 -13 4 -8 -7 4 -12 0 -15 -19 -13 -13 1 -24 -3 -25 -9 0 -6 -4 -2 -9 9
-5 11 -9 14 -9 8 -1 -14 -51 -14 -51 -1 0 5 -9 3 -20 -4 -17 -11 -22 -10 -30
2 -8 12 -10 12 -10 -5 0 -17 -2 -17 -10 -5 -6 10 -10 11 -10 3 0 -7 -5 -13
-11 -13 -5 0 -7 6 -3 13 5 8 2 8 -9 -2 -12 -9 -17 -10 -17 -2 0 7 -4 9 -10 6
-5 -3 -10 -1 -10 5 0 6 -4 9 -9 6 -5 -4 -7 3 -4 14 3 13 -1 22 -12 26 -13 5
-14 9 -3 15 10 7 9 9 -4 9 -15 0 -18 9 -19 48 -1 68 -7 95 -25 109 -11 8 -16
27 -16 54 1 22 -2 39 -5 36 -12 -12 -30 21 -37 66 -5 31 -12 47 -22 47 -8 0
-14 10 -14 25 0 14 -9 34 -20 45 -11 11 -20 27 -20 35 0 8 -9 20 -20 27 -11 7
-20 21 -20 30 0 10 -9 23 -20 30 -12 8 -20 24 -20 40 0 19 -5 28 -17 28 -9 0
-13 3 -10 7 4 3 -5 17 -19 30 -21 19 -29 21 -40 12 -8 -7 -13 -18 -10 -26 3
-8 1 -11 -4 -8 -14 8 -13 -18 1 -32 8 -8 7 -13 -2 -18 -8 -6 -10 -4 -4 5 5 9
4 11 -4 6 -9 -6 -9 -11 0 -22 6 -8 8 -14 3 -14 -5 0 -2 -5 6 -10 13 -9 13 -10
0 -10 -18 0 -25 -60 -7 -60 7 0 4 -5 -6 -11 -14 -8 -15 -14 -7 -24 8 -10 8
-15 0 -20 -7 -5 -8 -11 -1 -19 6 -7 6 -18 1 -25 -4 -8 -6 -21 -2 -29 4 -11 1
-13 -8 -7 -9 5 -11 4 -6 -3 4 -6 2 -20 -3 -30 -6 -11 -8 -22 -4 -26 9 -9 9
-76 0 -76 -4 0 -3 -9 3 -20 10 -19 6 -25 -14 -21 -5 1 -4 -5 4 -13 10 -13 10
-16 0 -16 -8 0 -10 -3 -7 -7 4 -3 2 -12 -4 -20 -8 -9 -8 -13 -1 -13 7 0 9 -7
5 -17 -8 -20 -8 -81 0 -89 3 -3 -3 -21 -14 -40 -11 -19 -14 -34 -8 -34 7 0 8
-7 4 -17 -11 -27 -12 -66 -1 -88 9 -18 8 -19 -9 -5 -10 8 -16 9 -11 3 4 -7 3
-21 -3 -31 -5 -10 -6 -24 -2 -31 5 -7 5 -28 1 -47 -4 -19 -4 -34 1 -34 4 0 6
-6 4 -12 -10 -29 -11 -98 -2 -98 5 0 4 -7 -3 -15 -6 -8 -9 -19 -5 -25 3 -5 1
-10 -5 -10 -8 0 -8 -6 0 -20 8 -15 8 -20 -1 -20 -8 0 -8 -4 -1 -13 21 -24 -12
-50 -65 -50 -53 0 -96 10 -89 21 2 4 -11 7 -30 7 -19 0 -34 -4 -34 -10 0 -5
-6 -3 -13 5 -7 9 -21 16 -32 17 -33 2 -50 7 -57 17 -6 9 -18 12 -65 18 -7 1
-13 6 -13 11 0 5 -7 7 -15 4 -8 -4 -17 -2 -20 3 -3 5 -14 7 -25 5 -11 -2 -20
0 -20 6 0 5 -9 9 -20 9 -11 0 -20 5 -20 10 0 6 -7 10 -16 10 -8 0 -22 7 -31
15 -8 8 -19 13 -24 10 -5 -4 -9 -2 -9 2 0 5 -15 14 -34 21 -18 7 -47 26 -65
42 -17 17 -31 26 -31 20 0 -5 -7 -7 -15 -4 -8 4 -12 10 -9 15 5 8 -9 13 -28
10 -5 0 -8 3 -8 7 0 5 -11 14 -25 20 -14 6 -25 19 -25 27 0 9 -4 14 -9 10 -5
-3 -12 -1 -16 5 -4 6 -11 7 -17 4 -7 -4 -8 -2 -4 4 4 7 -16 35 -49 68 -30 31
-58 67 -61 80 -3 13 -12 24 -20 24 -8 0 -14 9 -14 20 0 11 -9 25 -20 32 -14 9
-20 24 -20 47 0 19 -3 32 -6 28 -4 -3 -13 1 -21 9 -12 12 -15 46 -15 175 0
143 2 162 19 177 13 12 19 34 21 71 2 41 8 58 23 69 11 8 19 25 19 42 0 19 6
31 19 35 10 3 18 11 18 18 -1 38 5 57 17 57 8 0 18 9 21 20 3 11 10 20 14 20
5 0 15 14 22 32 7 18 20 39 29 48 8 9 21 26 29 38 8 11 18 19 23 16 4 -3 8 2
8 10 0 9 5 16 10 16 6 0 10 7 10 15 0 8 5 15 10 15 6 0 10 7 10 15 0 8 6 15
13 15 7 0 18 9 25 20 7 12 18 18 25 14 7 -4 9 -4 5 1 -7 7 14 35 26 35 7 0 30
20 75 63 15 15 31 27 36 27 4 0 18 9 32 20 14 11 29 17 34 14 5 -3 6 2 3 10
-4 11 0 16 10 16 9 0 16 5 16 12 0 6 3 8 7 5 3 -4 12 -2 20 4 7 6 13 8 13 3 0
-4 6 0 13 9 6 9 19 17 27 19 8 2 21 9 28 16 8 7 17 10 21 8 4 -3 7 10 8 29 0
27 -4 35 -24 40 -13 3 -28 3 -33 0 -4 -3 -10 0 -12 7 -3 7 -8 1 -12 -12z
m1433 -1289 c2 0 -2 -8 -9 -16 -7 -8 -10 -21 -7 -29 7 -18 -28 -52 -38 -37
-10 18 -15 52 -5 46 5 -3 11 -1 14 4 4 5 2 12 -4 16 -23 14 16 27 49 16z"/>
<path d="M5480 6389 c0 -5 5 -7 10 -4 6 3 10 8 10 11 0 2 -4 4 -10 4 -5 0 -10
-5 -10 -11z"/>
<path d="M5458 6343 c6 -3 10 -9 6 -14 -8 -14 2 -11 14 4 8 10 6 13 -11 14
-12 0 -16 -1 -9 -4z"/>
</g>
</svg>
