<?xml version="1.0" standalone="no"?>
<!DOCTYPE svg PUBLIC "-//W3C//DTD SVG 20010904//EN"
 "http://www.w3.org/TR/2001/REC-SVG-20010904/DTD/svg10.dtd">
<svg version="1.0" xmlns="http://www.w3.org/2000/svg"
 width="1024.000000pt" height="1024.000000pt" viewBox="0 0 1024.000000 1024.000000"
 preserveAspectRatio="xMidYMid meet">
<metadata>
Created by potrace 1.14, written by Peter Selinger 2001-2017
</metadata>
<g transform="translate(0.000000,1024.000000) scale(0.100000,-0.100000)"
fill="#000000" stroke="none">
<path d="M0 5120 l0 -5120 5120 0 5120 0 0 5120 0 5120 -5120 0 -5120 0 0
-5120z m6647 4099 c-63 -167 -155 -322 -367 -619 -152 -212 -301 -443 -295
-458 3 -8 0 -10 -7 -6 -8 5 -9 2 -5 -10 4 -9 3 -15 -1 -12 -5 3 -16 -10 -24
-28 -13 -26 -13 -33 -3 -33 7 0 11 6 8 14 -4 9 0 11 11 7 9 -4 15 -9 12 -12
-3 -3 2 -12 12 -21 9 -9 18 -20 19 -26 0 -5 2 -17 4 -25 2 -8 -9 -64 -24 -125
-33 -138 -42 -199 -62 -402 -9 -97 -22 -180 -32 -206 -16 -40 -21 -44 -47 -41
-38 4 -82 53 -97 107 -6 23 -12 87 -12 142 0 66 -3 88 -7 65 l-7 -35 -2 32
c-3 90 80 348 189 588 74 162 275 487 469 760 27 39 103 147 168 241 65 94
119 170 121 169 1 -1 -8 -31 -21 -66z m82 -64 c6 -55 15 -197 20 -315 9 -207
11 -219 46 -330 46 -147 65 -283 65 -489 0 -263 -37 -452 -125 -638 -60 -128
-128 -222 -263 -365 -63 -68 -137 -157 -164 -198 -26 -41 -48 -72 -48 -68 0 4
14 50 30 101 30 93 31 95 87 132 263 174 403 486 403 895 0 141 -45 613 -66
695 -14 52 -15 78 -4 199 9 90 11 200 6 314 -3 97 -4 174 -2 171 2 -2 9 -49
15 -104z m-3185 -147 c67 -112 192 -315 277 -453 182 -296 309 -542 367 -715
23 -69 42 -132 42 -140 0 -13 -62 125 -77 172 -3 9 -11 19 -18 21 -15 6 -14
-9 14 -135 23 -107 26 -172 11 -213 -5 -14 -11 -40 -12 -58 -1 -18 -8 -43 -15
-57 -7 -14 -13 -31 -13 -38 0 -7 -7 -15 -16 -19 -9 -3 -13 -12 -10 -22 5 -12
3 -12 -8 3 -8 10 -19 15 -24 12 -25 -15 -68 288 -76 531 0 22 -4 39 -8 36 -5
-2 -8 5 -8 16 0 12 5 21 10 21 6 0 10 7 10 15 0 9 8 33 18 54 11 21 18 49 16
62 -1 13 -3 28 -3 32 -1 5 -5 6 -9 3 -5 -3 -9 1 -9 8 0 8 -65 112 -145 232
-246 371 -363 579 -423 753 -36 104 -42 129 -24 99 5 -10 65 -109 133 -220z
m-183 -293 c1 -109 -4 -213 -14 -290 -41 -303 -45 -549 -12 -750 28 -177 92
-354 165 -460 54 -78 160 -185 242 -242 43 -30 80 -59 84 -64 8 -14 54 -181
54 -199 0 -8 -14 9 -30 39 -46 83 -97 146 -220 271 -122 126 -185 211 -249
339 -55 109 -115 291 -136 411 -37 220 -28 500 22 669 50 167 53 192 63 471 5
151 10 280 11 285 4 23 19 -323 20 -480z m2239 300 c258 -31 585 -93 688 -132
23 -9 23 -9 4 -33 -47 -61 -265 -396 -322 -495 -67 -115 -150 -294 -190 -406
l-24 -66 -32 19 c-47 27 -217 68 -287 68 l-60 0 21 23 c12 13 19 27 15 30 -11
12 -95 7 -158 -8 -33 -8 -88 -14 -122 -15 -164 -1 -333 -44 -453 -115 -41 -24
-76 -43 -77 -41 -4 3 12 83 23 119 6 18 4 18 -26 2 -18 -9 -44 -29 -58 -43
l-25 -27 7 35 c3 19 17 57 31 83 l24 48 -29 -18 c-17 -10 -51 -36 -76 -59 -44
-40 -45 -41 -39 -16 3 15 15 45 25 66 11 22 18 41 16 43 -2 2 -23 -11 -47 -30
-62 -47 -117 -123 -137 -189 -9 -32 -20 -58 -23 -58 -4 0 -24 46 -44 103 -61
169 -174 388 -338 654 l-155 253 111 35 c285 90 606 152 967 185 144 13 633 4
790 -15z m1385 -372 c571 -262 1111 -682 1496 -1163 623 -780 926 -1743 879
-2790 -5 -107 -16 -249 -25 -315 -15 -116 -60 -359 -72 -392 -5 -13 -3 -14 15
-4 12 7 22 9 22 7 0 -3 -13 -12 -30 -21 -74 -38 -97 -167 -47 -262 15 -29 27
-54 27 -57 0 -2 -16 -2 -35 1 -35 5 -35 4 -30 -26 4 -23 1 -31 -9 -31 -8 0
-18 9 -21 21 -9 28 -16 18 -55 -76 -82 -202 -251 -508 -389 -704 -36 -52 -69
-98 -72 -103 -3 -5 -36 -11 -73 -14 -110 -8 -230 -64 -272 -129 -16 -25 -64
-34 -90 -17 -6 4 -14 40 -16 80 -7 103 -52 158 -136 169 -27 4 -42 11 -45 23
-16 60 -139 84 -432 83 -126 -1 -251 -5 -277 -11 l-47 -9 -7 31 c-3 17 -26
119 -50 226 -23 107 -42 195 -41 196 67 38 200 141 241 184 95 103 121 193
110 385 l-6 110 46 34 c49 37 96 97 96 124 0 9 -23 47 -52 84 -65 86 -96 152
-77 164 28 17 123 31 168 24 167 -24 283 -162 331 -395 l17 -85 8 75 c23 240
99 418 240 565 121 126 271 205 388 205 206 0 350 -166 448 -515 l27 -100 1
91 c3 334 -60 871 -145 1244 -81 352 -138 516 -303 855 l-106 220 1 75 c0 41
2 91 4 111 4 33 -3 45 -71 123 -40 47 -96 124 -123 171 -40 70 -50 98 -56 155
-13 114 -55 186 -137 231 -18 10 -66 72 -127 165 -116 175 -218 309 -248 325
-19 10 -25 8 -44 -15 -44 -51 -57 -141 -24 -171 40 -36 62 -137 68 -304 16
-501 -126 -995 -383 -1336 -71 -93 -103 -121 -148 -129 -20 -4 -65 -26 -100
-49 -57 -39 -66 -50 -107 -135 -46 -95 -94 -153 -165 -202 -77 -53 -104 -62
-155 -55 l-48 7 52 71 c119 167 151 301 106 448 -28 93 -114 264 -183 367 -45
65 -167 224 -286 372 l-24 30 127 130 c148 153 211 238 278 377 92 191 124
386 115 698 -6 211 -23 326 -67 460 -16 50 -31 109 -33 133 -6 52 -16 54 178
-35z m-3750 -123 c-56 -161 -78 -456 -51 -675 19 -159 44 -257 100 -397 65
-161 134 -257 336 -463 210 -216 260 -291 260 -383 -1 -71 -15 -109 -74 -197
-112 -166 -161 -307 -154 -435 5 -90 26 -139 133 -321 41 -69 75 -130 75 -136
0 -19 -30 -23 -59 -9 -53 28 -186 133 -249 197 -47 47 -75 87 -107 154 -24 49
-54 100 -66 112 -35 32 -103 64 -148 70 -33 5 -47 15 -93 72 -117 143 -182
250 -252 413 -113 265 -176 603 -176 938 0 179 14 262 51 314 16 22 20 38 17
71 -7 59 -38 119 -64 123 -46 7 -161 -167 -296 -447 -71 -149 -98 -194 -132
-226 -45 -41 -66 -89 -66 -151 0 -38 -33 -86 -152 -218 -98 -109 -100 -114
-71 -217 22 -81 10 -156 -58 -337 -238 -637 -332 -1053 -369 -1637 -12 -193
-13 -538 -2 -531 5 3 14 38 22 78 44 251 174 464 314 517 66 24 156 27 231 7
238 -63 459 -368 501 -693 l6 -52 -235 -3 -235 -3 -44 -30 c-50 -35 -88 -103
-87 -155 0 -19 75 -244 167 -500 l168 -465 -48 -12 c-88 -23 -154 -68 -184
-125 -10 -19 -28 -31 -61 -40 -43 -12 -56 -12 -123 5 -41 10 -117 20 -169 21
l-94 2 -120 180 -119 179 -51 12 c-27 6 -63 21 -78 32 l-29 21 -20 -20 c-11
-11 -25 -18 -30 -15 -6 4 -10 1 -10 -4 0 -14 -36 -14 -63 1 -80 42 -52 158 39
158 32 0 36 -3 31 -21 -3 -13 -1 -19 6 -16 7 3 11 11 9 18 -2 9 3 8 16 -4 18
-16 19 -16 31 10 10 21 10 28 1 31 -27 9 -116 90 -147 134 -71 99 -94 245 -54
335 19 41 19 43 0 115 -124 477 -156 1042 -89 1563 64 499 230 1008 476 1465
329 612 846 1147 1464 1517 128 77 295 163 298 155 1 -4 -9 -41 -23 -82z
m3472 -152 c-2 -18 -4 -6 -4 27 0 33 2 48 4 33 2 -15 2 -42 0 -60z m-1381
-410 c-24 -34 -20 -38 42 -38 63 0 164 -14 230 -31 l43 -12 -22 -23 c-17 -18
-19 -24 -8 -28 8 -2 38 -12 67 -21 39 -13 52 -21 48 -32 -4 -8 -9 -25 -12 -37
l-5 -23 -122 44 c-67 23 -128 43 -134 43 -7 0 -13 4 -13 10 0 17 -75 31 -204
37 l-130 6 50 22 c27 12 78 41 113 63 35 23 66 42 68 42 2 0 -3 -10 -11 -22z
m-101 -24 c-107 -67 -206 -106 -175 -69 11 13 8 14 -21 9 -137 -25 -245 -49
-312 -70 -89 -28 -87 -27 -87 -14 0 17 182 99 267 120 64 17 257 43 353 48 8
1 -3 -10 -25 -24z m-856 -41 c-7 -31 -9 -69 -4 -99 l8 -49 18 55 17 55 1 -70
c1 -38 8 -81 15 -94 12 -22 14 -20 20 39 4 35 14 80 23 102 l16 39 22 -33 c15
-23 24 -54 27 -99 5 -64 39 -149 60 -149 4 0 8 -4 8 -10 0 -12 -81 -13 -132
-1 -21 5 -38 5 -38 0 0 -12 69 -79 82 -79 6 0 9 -3 6 -6 -10 -9 -86 34 -129
73 -41 37 -81 98 -94 143 l-8 25 19 -23 c19 -23 19 -23 19 56 0 62 5 89 24
130 14 29 26 50 28 48 2 -1 -2 -25 -8 -53z m99 6 c-12 -23 -27 -65 -34 -93 -7
-28 -13 -42 -13 -31 -1 31 19 97 41 133 28 45 32 40 6 -9z m3394 -31 c85 -101
317 -432 331 -472 3 -7 11 -5 24 7 20 18 21 17 47 -34 26 -52 36 -126 16 -114
-6 4 -10 12 -9 18 4 32 -3 57 -20 78 l-19 24 -30 -22 -30 -22 -6 32 c-7 35
-94 196 -130 242 -16 20 -9 0 21 -63 25 -51 43 -95 40 -98 -3 -3 -14 15 -25
39 -49 110 -127 229 -215 327 -45 50 -48 52 -62 34 -8 -10 -15 -15 -15 -10 0
18 23 86 30 86 4 0 27 -24 52 -52z m-5133 -5 c23 -64 23 -69 3 -43 l-21 25
-26 -25 c-34 -31 -118 -168 -216 -350 -62 -116 -79 -156 -80 -191 -1 -24 -3
-36 -6 -26 -5 19 -24 22 -40 6 -6 -6 -21 -16 -34 -23 -12 -6 -24 -16 -26 -21
-2 -6 17 -42 42 -80 l46 -70 -50 52 c-29 29 -51 61 -51 73 0 32 26 76 59 99
19 14 48 60 85 134 100 203 269 477 294 477 5 0 14 -17 21 -37z m3016 -13 c-3
-5 -12 -10 -18 -10 -7 0 -6 4 3 10 19 12 23 12 15 0z m3015 0 c0 -5 -2 -10 -4
-10 -3 0 -8 5 -11 10 -3 6 -1 10 4 10 6 0 11 -4 11 -10z m-6234 -322 c-18 -40
-39 -90 -45 -111 -7 -21 -15 -37 -17 -34 -10 9 77 217 91 217 2 0 -11 -33 -29
-72z m1526 -347 c18 -62 23 -71 34 -57 9 13 13 14 17 4 3 -7 6 -2 6 11 1 13 4
21 8 18 3 -4 13 -1 21 6 18 14 13 2 -20 -45 -10 -14 -18 -29 -18 -32 0 -7 89
42 114 63 11 9 16 11 13 4 -4 -6 -3 -14 3 -18 5 -3 10 -2 10 3 0 10 66 8 93
-3 10 -4 24 -1 34 6 14 12 16 12 9 0 -7 -10 -3 -12 14 -6 33 10 80 12 74 3 -3
-4 0 -8 5 -8 6 0 11 5 11 10 0 6 3 9 8 9 4 -1 9 -1 12 0 3 1 22 4 42 6 21 2
53 11 70 19 18 8 47 17 63 20 17 2 32 5 35 6 3 1 10 3 15 4 32 6 72 20 84 30
12 9 13 8 6 -4 -7 -12 -6 -13 7 -3 8 7 18 10 21 6 4 -3 7 -2 7 3 0 5 12 9 28
8 15 -1 33 4 41 10 8 6 16 10 18 8 2 -2 32 0 68 3 46 5 69 4 80 -5 16 -14 21
-35 6 -25 -6 3 -20 -8 -32 -24 -15 -21 -34 -32 -60 -36 -47 -8 -59 -22 -25
-31 21 -5 24 -9 16 -24 -7 -13 -6 -20 5 -24 8 -3 15 -10 15 -15 0 -11 -109
-47 -171 -57 -22 -4 -39 -11 -39 -17 0 -14 186 0 249 19 34 10 69 32 116 75
66 59 68 60 108 52 71 -14 148 -7 194 16 61 33 71 48 34 56 -29 6 -35 25 -14
46 8 8 13 7 18 -2 5 -7 4 -10 -3 -5 -6 3 -14 1 -18 -5 -5 -8 1 -10 20 -7 14 3
26 2 26 -2 0 -4 14 -6 32 -4 17 2 29 1 25 -2 -3 -4 1 -13 9 -21 8 -8 12 -19 9
-24 -4 -5 -1 -9 4 -9 6 0 11 -6 11 -14 0 -7 11 -30 25 -50 28 -42 32 -83 10
-112 -8 -10 -15 -27 -15 -36 0 -40 -74 -170 -148 -261 -55 -69 -88 -121 -110
-176 -39 -94 -139 -250 -199 -308 -51 -49 -118 -66 -162 -42 -40 22 -76 104
-76 170 0 48 -2 55 -14 46 -22 -19 -51 -89 -51 -126 0 -86 52 -168 134 -211
25 -14 51 -36 58 -50 7 -14 23 -33 36 -43 12 -10 19 -24 15 -30 -3 -7 -3 -9 2
-5 4 4 38 -21 75 -55 85 -81 122 -93 290 -91 142 2 200 18 286 79 66 47 156
137 190 190 35 57 57 62 79 20 25 -46 16 -115 -28 -207 -89 -185 -347 -448
-441 -448 -15 0 -17 6 -13 42 3 23 9 44 14 45 6 2 8 15 5 30 -4 24 -3 25 22
21 18 -4 24 -2 18 4 -18 18 -87 21 -125 5 -40 -17 -49 -37 -17 -37 28 0 25
-10 -17 -60 -111 -129 -301 -187 -517 -156 l-59 8 39 18 c22 10 51 21 65 24
17 4 32 17 42 38 9 18 34 51 57 73 23 22 46 48 51 58 16 29 -8 57 -78 89 -121
57 -343 47 -359 -17 -12 -49 24 -101 121 -173 33 -24 58 -46 55 -48 -3 -2 2
-9 10 -16 8 -7 13 -12 11 -10 -2 1 -13 -6 -24 -15 -13 -11 -17 -12 -12 -4 6
11 4 13 -9 8 -27 -10 -36 1 -26 29 7 17 7 23 0 19 -6 -3 -10 -2 -10 4 0 15
-125 25 -162 12 -28 -10 -39 -8 -83 14 -120 59 -416 317 -472 413 -14 23 -27
42 -30 42 -7 0 42 -83 98 -167 27 -40 49 -75 49 -79 0 -15 -124 145 -162 208
-84 141 -121 282 -134 513 -8 135 8 269 37 305 l20 25 -15 -32 c-20 -40 -21
-264 -1 -398 7 -49 13 -80 14 -68 1 20 21 45 21 26 0 -4 15 -18 34 -31 22 -15
40 -39 51 -70 48 -128 171 -273 270 -318 69 -32 173 -43 229 -24 98 32 182
167 201 323 8 64 -17 169 -65 271 -40 85 -64 107 -44 40 19 -64 18 -133 -3
-156 -10 -12 -30 -18 -57 -18 -125 0 -280 150 -389 377 -36 76 -41 95 -42 159
0 40 -3 70 -7 67 -5 -2 -8 -19 -9 -36 0 -27 -2 -29 -9 -12 -7 18 -9 17 -15
-10 -6 -29 -8 -30 -71 -30 -56 -1 -67 -4 -95 -30 l-31 -30 7 35 c17 89 48 190
68 221 28 46 71 139 52 114 -8 -10 -21 -34 -27 -52 -19 -51 -26 -39 -16 27 8
52 6 77 -16 169 -14 59 -26 125 -25 147 0 36 2 33 20 -31 11 -38 29 -103 41
-144z m1995 90 c-7 -91 -41 -216 -77 -281 -27 -50 -25 -27 10 86 17 54 38 140
48 191 9 51 19 93 21 93 2 0 1 -40 -2 -89z m-937 19 c0 -5 -5 -10 -11 -10 -5
0 -7 5 -4 10 3 6 8 10 11 10 2 0 4 -4 4 -10z m3273 -237 c24 -38 74 -104 112
-148 61 -72 66 -80 46 -83 -37 -6 -46 2 -116 110 -134 204 -146 227 -134 250
10 19 12 18 30 -21 10 -22 38 -71 62 -108z m-6103 28 c0 -22 -73 -122 -120
-166 -43 -40 -59 -73 -53 -111 l5 -32 -41 11 c-23 6 -41 16 -41 22 0 5 48 62
105 125 58 63 110 129 117 147 12 33 28 35 28 4z m-1082 -116 c2 -2 -6 -25
-18 -52 -12 -26 -22 -58 -22 -70 0 -12 -6 -21 -12 -20 -13 2 -61 70 -77 109
-6 15 -15 25 -20 22 -5 -3 -6 1 -4 8 4 10 24 13 78 10 39 -2 74 -6 75 -7z
m-107 -146 c22 -33 39 -62 37 -65 -3 -2 -23 25 -46 61 -52 82 -46 85 9 4z
m5467 -248 c265 -306 355 -553 269 -742 -28 -65 -115 -197 -143 -219 -10 -8
-2 8 18 35 46 64 75 122 104 209 41 119 28 191 -55 301 -20 27 -68 106 -106
175 -37 69 -93 170 -123 225 -30 55 -68 120 -84 145 l-29 45 33 -39 c18 -22
70 -82 116 -135z m-206 132 c10 -9 18 -23 17 -32 0 -10 -2 -12 -6 -3 -12 31
-55 -2 -91 -73 -19 -35 -21 -37 -22 -15 0 40 18 91 42 117 26 27 35 28 60 6z
m255 -340 c50 -88 91 -185 99 -232 5 -29 0 -50 -21 -91 -28 -56 -227 -355
-252 -380 -15 -15 0 10 127 210 88 138 104 170 102 202 -2 21 1 26 13 22 10
-4 15 0 15 10 0 21 -64 184 -101 258 -16 32 -29 60 -29 63 0 14 12 -1 47 -62z
m-2747 10 c-7 -21 -33 -85 -58 -143 -44 -101 -46 -109 -50 -221 -3 -95 0 -129
16 -188 25 -87 60 -150 106 -188 19 -15 42 -45 52 -65 9 -20 21 -35 26 -32 4
3 5 -1 2 -9 -7 -20 62 -157 131 -258 65 -94 105 -146 214 -269 41 -47 84 -96
95 -109 l21 -24 -33 19 c-33 19 -143 128 -196 194 l-27 35 21 -43 21 -44 -26
-66 c-14 -36 -27 -82 -28 -104 -1 -33 -3 -36 -16 -24 -22 23 -25 108 -6 206
10 49 14 102 11 117 -4 15 -42 80 -85 143 -43 63 -107 165 -141 225 -35 61
-89 153 -121 205 -31 52 -64 117 -73 143 -20 59 -20 144 -2 217 13 51 147 331
154 324 2 -1 -1 -20 -8 -41z m2510 44 c0 -27 -36 -109 -56 -128 l-25 -24 30
65 c17 36 31 71 31 78 0 6 5 12 10 12 6 0 10 -1 10 -3z m-1060 -199 c0 -2 -9
-29 -19 -62 l-18 -58 -13 47 c-12 44 -12 49 5 61 16 12 45 19 45 12z m-865
-24 c10 -10 14 -25 11 -38 -3 -12 -6 -32 -6 -45 0 -20 -2 -21 -15 -11 -8 7
-20 30 -25 51 -15 56 1 76 35 43z m-210 -101 c19 -38 47 -85 61 -106 22 -34
23 -37 5 -28 -26 15 -84 86 -110 138 -21 43 -28 70 -11 43 8 -13 10 -12 10 3
0 29 8 20 45 -50z m1423 45 c30 -30 0 -78 -37 -58 -32 17 -21 70 14 70 6 0 16
-5 23 -12z m-2318 -204 c22 -23 23 -25 5 -21 -11 3 -48 11 -82 18 -35 6 -63
15 -63 20 0 4 10 15 22 23 19 13 25 13 57 0 20 -8 47 -26 61 -40z m3991 30
c17 -20 6 -28 -84 -55 -94 -29 -103 -15 -25 42 45 32 89 37 109 13z m-2326
-341 l50 -17 -51 -7 c-28 -3 -60 -11 -72 -18 -31 -17 -75 -13 -138 10 -64 24
-61 36 12 49 63 11 136 5 199 -17z m1826 -147 c31 -23 65 -46 75 -52 34 -21 5
-28 -54 -15 -113 26 -115 26 -158 -14 -21 -20 -54 -51 -73 -68 -38 -36 -33
-23 16 41 18 24 32 53 31 66 -1 12 12 40 31 64 39 47 37 47 132 -22z m-2847
18 c3 -8 2 -12 -4 -9 -6 3 -10 10 -10 16 0 14 7 11 14 -7z m1526 -34 c-13 -44
-69 -90 -112 -90 -8 0 108 117 119 120 1 0 -2 -13 -7 -30z m-1629 -165 c6 -33
22 -97 36 -143 14 -45 23 -85 21 -88 -15 -15 -138 274 -138 325 0 27 6 34 33
46 l32 13 2 -46 c2 -26 8 -74 14 -107z m3057 38 c59 -82 307 -436 384 -549
l95 -141 5 -79 c4 -60 12 -95 36 -146 l31 -68 -37 1 c-53 1 -77 11 -80 34 -2
11 -34 70 -72 130 -38 61 -74 130 -79 155 -6 25 -20 83 -31 130 -36 155 -175
397 -291 505 -27 25 -49 48 -49 52 0 13 76 -8 88 -24z m-3215 -65 c-136 -177
-276 -452 -318 -624 -16 -66 -16 -74 -1 -102 22 -42 21 -49 -14 -79 -25 -20
-60 -79 -60 -99 0 -2 19 -5 43 -5 34 -1 27 -4 -33 -13 l-75 -11 -13 75 -12 75
96 190 c123 244 142 276 235 415 67 100 181 240 195 240 3 0 -16 -28 -43 -62z
m2970 -537 c38 -15 107 -172 107 -246 0 -16 -8 -52 -19 -80 -24 -66 -88 -104
-182 -108 -62 -2 -63 -2 -83 33 -40 67 -23 333 24 393 18 22 26 24 74 21 30
-2 65 -8 79 -13z m2901 -29 c3 -5 -1 -9 -9 -9 -8 0 -12 4 -9 9 3 4 7 8 9 8 2
0 6 -4 9 -8z m-9 -182 c-3 -5 -12 -10 -18 -10 -7 0 -6 4 3 10 19 12 23 12 15
0z m-6455 -72 c42 -13 100 -54 100 -72 0 -7 -12 -23 -26 -37 -33 -30 -55 -79
-48 -106 4 -15 -3 -26 -29 -42 -32 -20 -97 -102 -97 -123 0 -4 -81 -8 -180 -8
-204 0 -191 -7 -166 87 44 165 146 281 273 312 42 10 119 5 173 -11z m4378
-134 c54 -22 53 -63 -2 -64 -16 0 -100 49 -140 82 -14 11 106 -3 142 -18z
m2019 -6 c-3 -7 -5 -2 -5 12 0 14 2 19 5 13 2 -7 2 -19 0 -25z m-6152 -8 c3
-5 3 -10 -2 -10 -4 -1 -21 -12 -38 -26 -18 -16 -23 -24 -12 -20 10 3 15 2 12
-3 -3 -6 -13 -10 -23 -11 -9 0 -38 -3 -64 -6 -43 -5 -48 -4 -48 13 0 29 21 51
60 61 47 14 107 14 115 2z m6206 -13 c-10 -9 -11 -8 -5 6 3 10 9 15 12 12 3
-3 0 -11 -7 -18z m-1998 -69 c25 -13 21 -30 -14 -66 -43 -44 -67 -42 -34 2 30
39 20 46 -62 46 -43 0 -127 -7 -187 -15 -61 -8 -111 -13 -113 -12 -7 7 190 46
302 60 36 5 83 -2 108 -15z m1937 -13 c-7 -8 -16 -12 -21 -9 -5 3 -12 -2 -15
-10 -3 -9 -10 -13 -15 -10 -5 3 -9 2 -10 -3 0 -4 -2 -16 -4 -25 -2 -10 1 -18
6 -18 5 0 9 6 10 13 0 8 2 8 5 1 7 -16 44 -5 44 13 0 9 6 13 15 9 14 -5 21 12
15 39 -1 5 8 1 19 -9 27 -25 28 -79 1 -106 -25 -25 -81 -27 -102 -2 -38 42
-27 103 21 121 38 14 45 13 31 -4z m-6017 -45 c15 -7 27 -16 27 -21 0 -15 -87
-42 -151 -46 l-66 -5 -5 31 c-7 48 20 64 102 58 36 -2 77 -10 93 -17z m-255 3
c-30 -62 -29 -61 -88 -65 -51 -3 -56 -1 -47 14 16 25 78 58 110 58 16 0 27 -3
25 -7z m4208 -256 c-2 -151 -4 -166 -29 -220 -37 -82 -155 -190 -292 -268 -54
-30 -35 -13 50 46 109 76 179 148 208 213 35 78 44 171 23 241 -16 56 -14 83
3 40 9 -22 10 -21 10 12 1 50 12 99 22 99 4 0 7 -73 5 -163z m-1467 89 c21
-11 39 -32 51 -59 25 -58 430 -1782 430 -1832 0 -30 -45 -84 -58 -70 -20 21
-215 776 -440 1705 l-28 115 -1928 3 -1928 2 7 33 c12 55 33 84 77 106 l43 22
1870 -4 c1743 -4 1873 -5 1904 -21z m946 -81 c66 -14 134 -36 152 -48 32 -21
100 -148 94 -176 -1 -7 2 -10 8 -6 12 7 13 4 15 -36 1 -18 -2 -25 -11 -22 -8
3 -11 0 -8 -9 3 -8 -5 -23 -17 -35 -36 -32 -114 -74 -123 -65 -4 4 -5 2 -2 -4
8 -14 -20 -27 -35 -17 -7 3 -8 1 -4 -5 5 -8 -5 -12 -31 -13 -21 0 -47 -3 -58
-6 -11 -3 -30 -6 -42 -7 -13 0 -23 -4 -23 -7 0 -3 -22 -6 -48 -8 -60 -2 -81
13 -152 109 -29 39 -54 69 -56 68 -2 -2 9 -27 23 -56 29 -58 42 -136 24 -146
-7 -4 -11 1 -11 13 0 25 -20 39 -21 14 0 -16 -1 -16 -8 1 -9 23 -15 15 -30
-41 -7 -24 -15 -43 -20 -43 -5 0 -18 26 -29 58 -12 31 -28 66 -37 77 -14 19
-15 16 -9 -37 3 -32 3 -75 -1 -95 -8 -37 -8 -36 -21 36 -25 143 -106 272 -215
341 -27 18 -46 37 -42 43 4 6 0 8 -10 4 -9 -3 -19 -2 -22 3 -4 6 7 10 24 10
18 0 31 -5 32 -12 0 -9 2 -9 5 -2 6 15 93 -4 149 -33 45 -24 105 -83 128 -128
9 -16 16 -23 17 -15 0 21 -24 55 -79 114 -41 43 -43 47 -16 33 17 -9 50 -26
75 -38 l45 -21 -29 31 c-17 17 -45 36 -63 43 -18 7 -33 16 -33 21 0 4 -4 6 -9
2 -5 -3 -12 -1 -16 5 -4 6 -10 8 -14 6 -4 -3 -21 -2 -36 3 l-29 7 44 31 c25
16 60 38 79 47 102 53 293 57 496 11z m2606 8 c13 -16 12 -17 -3 -4 -10 7 -18
15 -18 17 0 8 8 3 21 -13z m-293 -303 c8 -8 11 -9 7 -2 -3 6 -1 12 4 12 16 0
14 -11 -6 -32 -27 -30 -48 -20 -58 28 -4 16 38 12 53 -6z m99 -6 c-3 -3 -12
-4 -19 -1 -8 3 -5 6 6 6 11 1 17 -2 13 -5z m-2962 -170 c15 -50 15 -52 -11
-103 -19 -35 -40 -60 -68 -76 l-41 -25 -23 91 c-19 77 -20 92 -8 104 7 8 31
43 52 80 l38 65 23 -42 c12 -24 30 -66 38 -94z m-5388 59 c-9 -2 -15 -8 -13
-12 3 -4 -1 -8 -9 -8 -11 0 -12 4 -4 14 6 7 19 12 28 12 13 -1 13 -2 -2 -6z
m-11 -68 c2 -13 -1 -14 -12 -4 -8 6 -14 19 -14 27 0 12 3 13 12 4 6 -6 13 -19
14 -27z m6124 -225 c12 -58 34 -153 50 -212 l27 -106 -36 -14 c-33 -13 -37
-13 -37 1 -1 9 -13 86 -27 171 -36 217 -38 248 -18 259 9 5 17 9 18 8 1 -2 12
-50 23 -107z m-6093 -82 c-3 -7 -5 -2 -5 12 0 14 2 19 5 13 2 -7 2 -19 0 -25z
m8248 -18 c-20 -22 -43 -17 -24 6 6 7 15 11 20 8 5 -3 9 0 9 7 0 7 3 9 7 6 3
-4 -2 -16 -12 -27z m46 13 c13 -16 12 -17 -3 -4 -10 7 -18 15 -18 17 0 8 8 3
21 -13z m-78 -83 c3 -11 1 -18 -4 -14 -5 3 -9 12 -9 20 0 20 7 17 13 -6z m62
0 c-10 -11 -22 -20 -28 -20 -5 0 1 9 14 20 31 25 37 25 14 0z m-1435 -171 c69
-11 114 -32 108 -52 -7 -21 -94 -56 -170 -69 -149 -25 -478 -14 -562 18 -15 6
-16 4 -7 -12 10 -19 42 -435 40 -529 l-1 -50 -14 60 c-15 65 -104 538 -107
569 -1 12 9 26 28 37 33 20 169 40 255 38 49 -2 46 -3 -28 -10 -107 -10 -185
-26 -208 -44 -24 -17 -18 -23 47 -42 70 -20 415 -30 527 -15 79 11 162 37 162
51 0 22 -112 45 -300 61 l-105 9 135 -5 c74 -3 164 -10 200 -15z m-5452 -46
c18 -46 25 -80 13 -64 -8 13 -18 12 -71 -3 -34 -9 -76 -27 -94 -40 -17 -12
-53 -31 -79 -40 -26 -10 -61 -29 -78 -44 l-31 -25 -107 27 c-93 24 -125 28
-227 25 -65 -1 -157 1 -204 6 -92 8 -170 0 -334 -37 -72 -16 -94 -24 -80 -30
13 -5 10 -6 -11 -3 -16 3 -45 1 -63 -4 -66 -19 -83 12 -29 52 68 51 208 80
387 80 109 0 147 -4 198 -21 51 -16 70 -18 94 -10 45 16 222 4 296 -20 l62
-20 60 35 c33 20 71 51 85 69 28 36 66 60 130 80 59 19 72 17 83 -13z m5691
-69 c71 -50 66 -211 -12 -358 -36 -68 -126 -170 -169 -192 -28 -14 -28 -14
-28 13 0 21 14 42 55 82 84 80 135 200 135 313 0 80 -26 100 -94 73 -17 -8
-18 -5 -12 31 5 21 10 42 12 46 9 14 89 8 113 -8z m-5654 -34 c3 -5 1 -10 -4
-10 -6 0 -11 5 -11 10 0 6 2 10 4 10 3 0 8 -4 11 -10z m6266 -78 c42 -21 61
-40 86 -81 28 -47 36 -54 68 -56 31 -2 75 -28 75 -44 0 -3 -19 -6 -42 -6 -24
-1 -55 -4 -70 -9 -27 -8 -28 -7 -28 27 0 115 -195 181 -333 113 -77 -37 -142
-89 -157 -126 -10 -25 -17 -29 -34 -24 -76 25 -105 32 -111 26 -3 -3 -2 5 3
18 11 29 43 31 92 6 28 -14 30 -13 30 5 0 27 75 106 125 131 109 57 213 64
296 20z m-6183 -144 c43 -113 58 -164 50 -169 -6 -4 -35 -10 -65 -14 -31 -4
-61 -14 -71 -25 -9 -9 -26 -20 -37 -23 -11 -3 -171 -11 -355 -17 -384 -12
-596 -25 -760 -45 -63 -8 -158 -17 -210 -20 -107 -6 -301 3 -322 16 -28 18 13
31 123 40 84 7 129 16 170 34 57 25 186 44 302 45 43 0 57 4 57 14 0 8 26 27
57 42 50 25 70 29 178 32 127 4 312 -16 389 -44 23 -8 68 -17 101 -20 56 -6
61 -5 70 17 13 31 79 67 137 75 l47 6 -24 33 c-30 39 -34 103 -7 134 19 23 69
51 92 51 11 0 35 -51 78 -162z m5500 87 c-7 -7 -23 -16 -35 -20 -28 -8 -32 16
-6 36 14 12 16 12 8 0 -6 -10 -4 -12 4 -7 7 5 10 11 7 14 -3 3 2 14 11 25 18
19 18 19 21 -8 2 -15 -2 -33 -10 -40z m979 -7 c-3 -8 -6 -5 -6 6 -1 11 2 17 5
13 3 -3 4 -12 1 -19z m-1849 -85 c6 -27 14 -66 17 -88 l7 -40 -27 49 c-14 27
-35 61 -46 74 -27 35 -24 52 10 52 27 0 30 -4 39 -47z m876 15 c-13 -45 -34
-77 -64 -98 l-30 -22 6 59 c8 83 9 83 54 83 38 0 41 -2 34 -22z m-1189 -47
c16 -4 31 -14 33 -23 2 -9 -32 -49 -80 -96 -120 -114 -251 -232 -260 -232 -5
0 -8 11 -8 25 0 19 8 28 27 36 32 12 43 26 43 57 0 27 -34 30 -69 6 -26 -19
-36 -12 -44 32 -5 27 -2 32 26 45 18 8 31 20 29 27 -1 8 2 11 8 7 9 -6 118 73
119 87 1 8 -56 17 -121 20 -26 1 -45 6 -42 10 3 5 -5 6 -19 3 -14 -4 -27 -3
-30 2 -6 10 345 5 388 -6z m-242 -59 c14 -7 -13 -30 -31 -26 -9 1 -38 6 -64 9
-74 10 -59 27 20 24 37 -2 71 -5 75 -7z m-85 -42 c6 0 12 -6 12 -13 0 -14 -38
-17 -57 -4 -22 14 -15 30 10 23 12 -3 28 -6 35 -6z m2715 -87 c26 -12 47 -25
47 -28 0 -4 -21 -4 -47 -1 -99 11 -707 10 -628 -1 32 -5 55 -19 55 -34 0 -5
-155 -9 -347 -9 l-347 0 49 50 50 51 560 -3 c552 -3 561 -3 608 -25z m-8153
-113 c0 -12 -27 -12 -55 0 -16 7 -13 9 18 9 20 1 37 -3 37 -9z m1375 1 c22 -5
38 -10 35 -11 -15 -6 -729 -16 -750 -10 -49 14 4 20 220 23 118 1 269 3 335 4
66 1 138 -2 160 -6z m-642 -258 c-7 -2 -19 -2 -25 0 -7 3 -2 5 12 5 14 0 19
-2 13 -5z"/>
<path d="M5911 8013 c-10 -26 -10 -27 4 -9 8 11 15 23 15 28 0 15 -7 8 -19
-19z"/>
<path d="M5741 7584 c0 -11 3 -14 6 -6 3 7 2 16 -1 19 -3 4 -6 -2 -5 -13z"/>
<path d="M1168 3260 c-27 -16 -28 -30 -2 -30 12 0 40 38 32 44 -2 2 -15 -4
-30 -14z"/>
<path d="M3982 6150 c0 -14 2 -19 5 -12 2 6 2 18 0 25 -3 6 -5 1 -5 -13z"/>
<path d="M9566 4176 c3 -9 -3 -31 -14 -51 -13 -20 -17 -37 -11 -40 5 -4 9 -3
8 2 -4 20 2 27 12 13 9 -13 10 -12 5 3 -3 9 -1 17 4 17 13 0 13 57 0 65 -6 3
-7 -1 -4 -9z"/>
<path d="M6374 3838 c-10 -16 2 -18 21 -5 16 12 16 14 1 14 -9 0 -19 -4 -22
-9z"/>
<path d="M7159 3593 c-13 -16 -12 -17 4 -4 16 13 21 21 13 21 -2 0 -10 -8 -17
-17z"/>
</g>
</svg>
